{
  "accessors": [
    {
      "bufferView": 2,
      "componentType": 5126,
      "count": 762,
      "max": [
        6.917263984680176,
        13.035985946655273,
        3.414647102355957
      ],
      "min": [
        -19.15481185913086,
        -13.036050796508789,
        0.16118000447750092
      ],
      "type": "VEC3"
    },
    {
      "bufferView": 2,
      "byteOffset": 9144,
      "componentType": 5126,
      "count": 762,
      "max": [
        0.9989506602287292,
        0.999001145362854,
        0.9999997615814209
      ],
      "min": [
        -0.998965859413147,
        -0.9989136457443237,
        -1.0
      ],
      "type": "VEC3"
    },
    {
      "bufferView": 1,
      "componentType": 5126,
      "count": 762,
      "max": [
        0.625,
        0.500469982624054
      ],
      "min": [
        0.375,
        0.32491400837898254
      ],
      "type": "VEC2"
    },
    {
      "bufferView": 0,
      "componentType": 5125,
      "count": 3150,
      "type": "SCALAR"
    },
    {
      "bufferView": 2,
      "byteOffset": 18288,
      "componentType": 5126,
      "count": 763,
      "max": [
        21.202890396118164,
        13.035985946655273,
        6.875508785247803
      ],
      "min": [
        -4.075716972351074,
        -13.036050796508789,
        -0.37176498770713806
      ],
      "type": "VEC3"
    },
    {
      "bufferView": 2,
      "byteOffset": 27444,
      "componentType": 5126,
      "count": 763,
      "max": [
        0.968538224697113,
        0.9990010261535645,
        0.9982202649116516
      ],
      "min": [
        -0.9685527682304382,
        -0.9989136457443237,
        -0.9982479810714722
      ],
      "type": "VEC3"
    },
    {
      "bufferView": 1,
      "byteOffset": 6096,
      "componentType": 5126,
      "count": 763,
      "max": [
        0.625,
        0.500469982624054
      ],
      "min": [
        0.375,
        0.32491400837898254
      ],
      "type": "VEC2"
    },
    {
      "bufferView": 0,
      "byteOffset": 12600,
      "componentType": 5125,
      "count": 3174,
      "type": "SCALAR"
    },
    {
      "bufferView": 2,
      "byteOffset": 36600,
      "componentType": 5126,
      "count": 14,
      "max": [
        3.5174460411071777,
        11.660840034484863,
        1.3765289783477783
      ],
      "min": [
        -6.118768215179443,
        6.438711166381836,
        1.2561719417572021
      ],
      "type": "VEC3"
    },
    {
      "bufferView": 2,
      "byteOffset": 36768,
      "componentType": 5126,
      "count": 14,
      "max": [
        0.40702205896377563,
        0.5036381483078003,
        -0.7566971778869629
      ],
      "min": [
        -0.41684308648109436,
        0.1774590164422989,
        -0.975321352481842
      ],
      "type": "VEC3"
    },
    {
      "bufferView": 1,
      "byteOffset": 12200,
      "componentType": 5126,
      "count": 14,
      "max": [
        0.4296880066394806,
        0.406484991312027
      ],
      "min": [
        0.390625,
        0.406484991312027
      ],
      "type": "VEC2"
    },
    {
      "bufferView": 0,
      "byteOffset": 25296,
      "componentType": 5125,
      "count": 24,
      "type": "SCALAR"
    },
    {
      "bufferView": 2,
      "byteOffset": 36936,
      "componentType": 5126,
      "count": 7056,
      "max": [
        13.164624214172363,
        6.458262920379639,
        5.558894157409668
      ],
      "min": [
        -10.51475715637207,
        -6.462350845336914,
        0.4612480103969574
      ],
      "type": "VEC3"
    },
    {
      "bufferView": 2,
      "byteOffset": 121608,
      "componentType": 5126,
      "count": 7056,
      "max": [
        0.9991656541824341,
        0.9923031330108643,
        0.9993880987167358
      ],
      "min": [
        -0.9991656541824341,
        -0.9923040270805359,
        -0.9993882179260254
      ],
      "type": "VEC3"
    },
    {
      "bufferView": 1,
      "byteOffset": 12312,
      "componentType": 5126,
      "count": 7056,
      "max": [
        1.0,
        1.0
      ],
      "min": [
        0.0,
        -0.0
      ],
      "type": "VEC2"
    },
    {
      "bufferView": 0,
      "byteOffset": 25392,
      "componentType": 5125,
      "count": 38400,
      "type": "SCALAR"
    },
    {
      "bufferView": 2,
      "byteOffset": 206280,
      "componentType": 5126,
      "count": 6113,
      "max": [
        19.930917739868164,
        11.589380264282227,
        6.9529619216918945
      ],
      "min": [
        -17.70816421508789,
        -11.590555191040039,
        -0.4455080032348633
      ],
      "type": "VEC3"
    },
    {
      "bufferView": 2,
      "byteOffset": 279636,
      "componentType": 5126,
      "count": 6113,
      "max": [
        1.0,
        1.0,
        1.0
      ],
      "min": [
        -1.0,
        -1.0,
        -1.0
      ],
      "type": "VEC3"
    },
    {
      "bufferView": 1,
      "byteOffset": 68760,
      "componentType": 5126,
      "count": 6113,
      "max": [
        0.625,
        0.6608859896659851
      ],
      "min": [
        0.375,
        0.3125
      ],
      "type": "VEC2"
    },
    {
      "bufferView": 0,
      "byteOffset": 178992,
      "componentType": 5125,
      "count": 18186,
      "type": "SCALAR"
    },
    {
      "bufferView": 2,
      "byteOffset": 352992,
      "componentType": 5126,
      "count": 976,
      "max": [
        13.024367332458496,
        6.328147888183594,
        5.458467960357666
      ],
      "min": [
        -10.371232032775879,
        -6.332234859466553,
        0.5521219968795776
      ],
      "type": "VEC3"
    },
    {
      "bufferView": 2,
      "byteOffset": 364704,
      "componentType": 5126,
      "count": 976,
      "max": [
        0.5625078678131104,
        0.5463627576828003,
        0.8132292032241821
      ],
      "min": [
        -0.5625050663948059,
        -0.5463618040084839,
        -0.8132280111312866
      ],
      "type": "VEC3"
    },
    {
      "bufferView": 1,
      "byteOffset": 117664,
      "componentType": 5126,
      "count": 976,
      "max": [
        1.0,
        1.0
      ],
      "min": [
        0.0,
        0.0
      ],
      "type": "VEC2"
    },
    {
      "bufferView": 0,
      "byteOffset": 251736,
      "componentType": 5125,
      "count": 4608,
      "type": "SCALAR"
    }
  ],
  "asset": {
    "extras": {
      "author": "Caio de Oliveira (https://sketchfab.com/caio17011)",
      "license": "CC-BY-4.0 (http://creativecommons.org/licenses/by/4.0/)",
      "source": "https://sketchfab.com/3d-models/tron-sci-fi-f5be8602bb6243f4aa53f1d27019113b",
      "title": "Tron  sci-fi"
    },
    "generator": "Sketchfab-14.1.2",
    "version": "2.0"
  },
  "bufferViews": [
    {
      "buffer": 0,
      "byteLength": 270168,
      "name": "floatBufferViews",
      "target": 34963
    },
    {
      "buffer": 0,
      "byteLength": 125472,
      "byteOffset": 270168,
      "byteStride": 8,
      "name": "floatBufferViews",
      "target": 34962
    },
    {
      "buffer": 0,
      "byteLength": 376416,
      "byteOffset": 395640,
      "byteStride": 12,
      "name": "floatBufferViews",
      "target": 34962
    }
  ],
  "buffers": [
    {
      "byteLength": 772056,
      "uri": "scene.bin"
    }
  ],
  "materials": [
    {
      "doubleSided": true,
      "name": "blinn1SG",
      "pbrMetallicRoughness": {
        "baseColorFactor": [
          0.12,
          0.12,
          0.12,
          1.0
        ],
        "roughnessFactor": 0.30666455364435397
      }
    },
    {
      "doubleSided": true,
      "emissiveFactor": [
        0.17731970279301498,
        1.0,
        1.0
      ],
      "name": "blinn2SG",
      "pbrMetallicRoughness": {
        "baseColorFactor": [
          0.0,
          1.0,
          1.0,
          1.0
        ],
        "metallicFactor": 0.6628591629993539,
        "roughnessFactor": 0.4
      }
    },
    {
      "doubleSided": true,
      "emissiveFactor": [
        1.0,
        0.16179960635803264,
        0.11750637479589597
      ],
      "name": "blinn4SG",
      "pbrMetallicRoughness": {
        "baseColorFactor": [
          1.0,
          0.28,
          0.0,
          1.0
        ],
        "metallicFactor": 0.7238117297119381,
        "roughnessFactor": 0.4
      }
    },
    {
      "doubleSided": true,
      "name": "blinn5SG",
      "pbrMetallicRoughness": {
        "baseColorFactor": [
          0.0,
          1.0,
          1.0,
          1.0
        ],
        "metallicFactor": 0.0
      }
    },
    {
      "doubleSided": true,
      "name": "initialShadingGroup",
      "pbrMetallicRoughness": {
        "baseColorFactor": [
          0.0,
          0.0,
          0.0,
          1.0
        ],
        "metallicFactor": 0.9127646865209493,
        "roughnessFactor": 0.14818788019163498
      }
    },
    {
      "doubleSided": true,
      "name": "lambert2SG",
      "pbrMetallicRoughness": {
        "baseColorFactor": [
          0.0686939492045094,
          0.0686939492045094,
          0.0686939492045094,
          1.0
        ],
        "roughnessFactor": 0.4895222537821068
      }
    }
  ],
  "meshes": [
    {
      "name": "Object_0",
      "primitives": [
        {
          "attributes": {
            "NORMAL": 1,
            "POSITION": 0,
            "TEXCOORD_0": 2
          },
          "indices": 3,
          "material": 1,
          "mode": 4
        }
      ]
    },
    {
      "name": "Object_1",
      "primitives": [
        {
          "attributes": {
            "NORMAL": 5,
            "POSITION": 4,
            "TEXCOORD_0": 6
          },
          "indices": 7,
          "material": 2,
          "mode": 4
        }
      ]
    },
    {
      "name": "Object_2",
      "primitives": [
        {
          "attributes": {
            "NORMAL": 9,
            "POSITION": 8,
            "TEXCOORD_0": 10
          },
          "indices": 11,
          "material": 3,
          "mode": 4
        }
      ]
    },
    {
      "name": "Object_3",
      "primitives": [
        {
          "attributes": {
            "NORMAL": 13,
            "POSITION": 12,
            "TEXCOORD_0": 14
          },
          "indices": 15,
          "material": 0,
          "mode": 4
        }
      ]
    },
    {
      "name": "Object_4",
      "primitives": [
        {
          "attributes": {
            "NORMAL": 17,
            "POSITION": 16,
            "TEXCOORD_0": 18
          },
          "indices": 19,
          "material": 4,
          "mode": 4
        }
      ]
    },
    {
      "name": "Object_5",
      "primitives": [
        {
          "attributes": {
            "NORMAL": 21,
            "POSITION": 20,
            "TEXCOORD_0": 22
          },
          "indices": 23,
          "material": 5,
          "mode": 4
        }
      ]
    }
  ],
  "nodes": [
    {
      "children": [
        1
      ],
      "matrix": [
        1.0,
        0.0,
        0.0,
        0.0,
        0.0,
        2.220446049250313e-16,
        -1.0,
        0.0,
        0.0,
        1.0,
        2.220446049250313e-16,
        0.0,
        0.0,
        0.0,
        0.0,
        1.0
      ],
      "name": "Sketchfab_model"
    },
    {
      "children": [
        2,
        3,
        4,
        5,
        6,
        7
      ],
      "name": "tron.obj.cleaner.materialmerger.gles"
    },
    {
      "mesh": 0,
      "name": "Object_2"
    },
    {
      "mesh": 1,
      "name": "Object_3"
    },
    {
      "mesh": 2,
      "name": "Object_4"
    },
    {
      "mesh": 3,
      "name": "Object_5"
    },
    {
      "mesh": 4,
      "name": "Object_6"
    },
    {
      "mesh": 5,
      "name": "Object_7"
    }
  ],
  "scene": 0,
  "scenes": [
    {
      "name": "Sketchfab_Scene",
      "nodes": [
        0
      ]
    }
  ]
}
