<?xml version="1.0" encoding="utf-8"?>
<!-- Generator: Adobe Illustrator 25.2.3, SVG Export Plug-In . SVG Version: 6.00 Build 0)  -->
<svg version="1.1" id="Objects" xmlns="http://www.w3.org/2000/svg" xmlns:xlink="http://www.w3.org/1999/xlink" x="0px" y="0px"
	 viewBox="0 0 880.9 790.5" style="enable-background:new 0 0 880.9 790.5;" xml:space="preserve">
<style type="text/css">
	.st0{fill:url(#SVGID_1_);}
	.st1{fill:url(#SVGID_2_);}
	.st2{fill:url(#SVGID_3_);}
	.st3{fill:url(#SVGID_4_);}
	.st4{fill:url(#SVGID_5_);}
	.st5{fill:url(#SVGID_6_);}
	.st6{fill:url(#SVGID_7_);}
	.st7{fill:url(#SVGID_8_);}
	.st8{fill:url(#SVGID_9_);}
	.st9{fill:url(#SVGID_10_);}
	.st10{fill:url(#SVGID_11_);}
	.st11{fill:url(#SVGID_12_);}
	.st12{fill:url(#SVGID_13_);}
	.st13{fill:url(#SVGID_14_);}
	.st14{fill:url(#SVGID_15_);}
	.st15{fill:url(#SVGID_16_);}
	.st16{fill:url(#SVGID_17_);}
	.st17{fill:url(#SVGID_18_);}
</style>
<g>
	<g>
		<radialGradient id="SVGID_1_" cx="138.4135" cy="395.2402" r="151.1418" gradientUnits="userSpaceOnUse">
			<stop  offset="0" style="stop-color:#FFFBCC"/>
			<stop  offset="0.1146" style="stop-color:#FBF2BB"/>
			<stop  offset="0.3413" style="stop-color:#F0D98E"/>
			<stop  offset="0.3708" style="stop-color:#EED688"/>
			<stop  offset="0.6854" style="stop-color:#EBBB10"/>
			<stop  offset="1" style="stop-color:#C3922E"/>
		</radialGradient>
		<path class="st0" d="M170.9,185.2c2.5,2.5,4.6,4.7,6.8,6.9c-45.3,60.2-69.3,127.7-69.3,203.2c0,75.5,24,143,69.6,203.4
			c-2.3,2.1-4.4,4.1-7,6.5c-42.3-54.5-66.5-116-71.3-184.8C93.5,333.2,117.8,254.8,170.9,185.2z"/>
		<radialGradient id="SVGID_2_" cx="440.1273" cy="697.3445" r="150.9901" gradientUnits="userSpaceOnUse">
			<stop  offset="0" style="stop-color:#FFFBCC"/>
			<stop  offset="0.1146" style="stop-color:#FBF2BB"/>
			<stop  offset="0.3413" style="stop-color:#F0D98E"/>
			<stop  offset="0.3708" style="stop-color:#EED688"/>
			<stop  offset="0.6854" style="stop-color:#EBBB10"/>
			<stop  offset="1" style="stop-color:#C3922E"/>
		</radialGradient>
		<path class="st1" d="M230.3,664.1c2.2-2,4.3-4.1,6.8-6.5c59.9,45.7,127.6,69.3,203.2,69.4c75.6,0.2,143.1-23.8,203.5-69.4
			c2.1,2.3,4.1,4.6,6.1,6.8C531.3,760.7,350.9,761.8,230.3,664.1z"/>
		<radialGradient id="SVGID_3_" cx="440.7247" cy="93.1725" r="150.9546" gradientUnits="userSpaceOnUse">
			<stop  offset="0" style="stop-color:#FFFBCC"/>
			<stop  offset="0.1146" style="stop-color:#FBF2BB"/>
			<stop  offset="0.3413" style="stop-color:#F0D98E"/>
			<stop  offset="0.3708" style="stop-color:#EED688"/>
			<stop  offset="0.6854" style="stop-color:#EBBB10"/>
			<stop  offset="1" style="stop-color:#C3922E"/>
		</radialGradient>
		<path class="st2" d="M650.5,126.2c-2.4,2.2-4.5,4.2-6.9,6.4c-59.9-45.3-127.3-69.3-202.9-69.2c-75.5,0.1-143.2,23.5-203.6,69.5
			c-2.1-2.4-4.1-4.8-6.1-7.1C350.2,30.1,527.4,28.5,650.5,126.2z"/>
		<radialGradient id="SVGID_4_" cx="742.4558" cy="395.3428" r="150.9832" gradientUnits="userSpaceOnUse">
			<stop  offset="0" style="stop-color:#FFFBCC"/>
			<stop  offset="0.1146" style="stop-color:#FBF2BB"/>
			<stop  offset="0.3413" style="stop-color:#F0D98E"/>
			<stop  offset="0.3708" style="stop-color:#EED688"/>
			<stop  offset="0.6854" style="stop-color:#EBBB10"/>
			<stop  offset="1" style="stop-color:#C3922E"/>
		</radialGradient>
		<path class="st3" d="M709.7,605.2c-2.4-2.3-4.7-4.4-6.9-6.5c45.6-60.3,69.6-127.8,69.7-203.3c0-75.5-24-143-69.5-203.4
			c2.2-2.1,4.5-4.3,6.7-6.5C802.5,300.1,809.9,479,709.7,605.2z"/>
	</g>
	<g>
		<radialGradient id="SVGID_5_" cx="202.3937" cy="395.2389" r="119.1229" gradientUnits="userSpaceOnUse">
			<stop  offset="0" style="stop-color:#FFFBCC"/>
			<stop  offset="0.1146" style="stop-color:#FBF2BB"/>
			<stop  offset="0.3413" style="stop-color:#F0D98E"/>
			<stop  offset="0.3708" style="stop-color:#EED688"/>
			<stop  offset="0.6854" style="stop-color:#EBBB10"/>
			<stop  offset="1" style="stop-color:#C3922E"/>
		</radialGradient>
		<path class="st4" d="M228,229.7c2,2,3.6,3.7,5.4,5.4c-35.7,47.4-54.6,100.6-54.6,160.2c0,59.5,18.9,112.7,54.9,160.3
			c-1.8,1.7-3.5,3.2-5.5,5.1c-33.3-42.9-52.4-91.5-56.2-145.6C167,346.3,186.2,284.6,228,229.7z"/>
		<radialGradient id="SVGID_6_" cx="440.1905" cy="633.3434" r="119.0033" gradientUnits="userSpaceOnUse">
			<stop  offset="0" style="stop-color:#FFFBCC"/>
			<stop  offset="0.1146" style="stop-color:#FBF2BB"/>
			<stop  offset="0.3413" style="stop-color:#F0D98E"/>
			<stop  offset="0.3708" style="stop-color:#EED688"/>
			<stop  offset="0.6854" style="stop-color:#EBBB10"/>
			<stop  offset="1" style="stop-color:#C3922E"/>
		</radialGradient>
		<path class="st5" d="M274.8,607.2c1.7-1.6,3.4-3.2,5.4-5.1c47.2,36,100.6,54.6,160.2,54.7c59.6,0.1,112.7-18.7,160.4-54.7
			c1.6,1.8,3.2,3.6,4.8,5.4C512.1,683.2,369.9,684.2,274.8,607.2z"/>
		<radialGradient id="SVGID_7_" cx="440.6613" cy="157.1633" r="118.9754" gradientUnits="userSpaceOnUse">
			<stop  offset="0" style="stop-color:#FFFBCC"/>
			<stop  offset="0.1146" style="stop-color:#FBF2BB"/>
			<stop  offset="0.3413" style="stop-color:#F0D98E"/>
			<stop  offset="0.3708" style="stop-color:#EED688"/>
			<stop  offset="0.6854" style="stop-color:#EBBB10"/>
			<stop  offset="1" style="stop-color:#C3922E"/>
		</radialGradient>
		<path class="st6" d="M606,183.2c-1.9,1.7-3.6,3.3-5.4,5c-47.2-35.7-100.4-54.6-159.9-54.5c-59.5,0.1-112.8,18.5-160.4,54.8
			c-1.6-1.9-3.2-3.8-4.8-5.6C369.3,107.4,509,106.2,606,183.2z"/>
		<radialGradient id="SVGID_8_" cx="678.4717" cy="395.3197" r="118.9979" gradientUnits="userSpaceOnUse">
			<stop  offset="0" style="stop-color:#FFFBCC"/>
			<stop  offset="0.1146" style="stop-color:#FBF2BB"/>
			<stop  offset="0.3413" style="stop-color:#F0D98E"/>
			<stop  offset="0.3708" style="stop-color:#EED688"/>
			<stop  offset="0.6854" style="stop-color:#EBBB10"/>
			<stop  offset="1" style="stop-color:#C3922E"/>
		</radialGradient>
		<path class="st7" d="M652.7,560.7c-1.9-1.8-3.7-3.5-5.5-5.1c35.9-47.5,54.9-100.7,54.9-160.2c0-59.5-18.9-112.7-54.8-160.3
			c1.7-1.7,3.5-3.4,5.3-5.1C725.8,320.2,731.6,461.3,652.7,560.7z"/>
	</g>
	<g>
		<radialGradient id="SVGID_9_" cx="268.1949" cy="567.4323" r="131.3293" gradientUnits="userSpaceOnUse">
			<stop  offset="0" style="stop-color:#FFFBCC"/>
			<stop  offset="0.1146" style="stop-color:#FBF2BB"/>
			<stop  offset="0.3413" style="stop-color:#F0D98E"/>
			<stop  offset="0.3708" style="stop-color:#EED688"/>
			<stop  offset="0.6854" style="stop-color:#EBBB10"/>
			<stop  offset="1" style="stop-color:#C3922E"/>
		</radialGradient>
		<path class="st8" d="M399.5,689.7c0,3.3,0,6.2,0,9.1c-138.7-16.2-247.8-133.2-262.7-262.6c2.9,0,5.8,0,9.1,0
			c9.8,65.4,37.5,122.2,84.5,169C277.3,651.7,333.6,680.1,399.5,689.7z"/>
		<radialGradient id="SVGID_10_" cx="268.0323" cy="222.7533" r="131.5801" gradientUnits="userSpaceOnUse">
			<stop  offset="0" style="stop-color:#FFFBCC"/>
			<stop  offset="0.1146" style="stop-color:#FBF2BB"/>
			<stop  offset="0.3413" style="stop-color:#F0D98E"/>
			<stop  offset="0.3708" style="stop-color:#EED688"/>
			<stop  offset="0.6854" style="stop-color:#EBBB10"/>
			<stop  offset="1" style="stop-color:#C3922E"/>
		</radialGradient>
		<path class="st9" d="M399.6,91.2c0,3.7,0,6.5,0,9.6c-65.8,9.6-122.2,37.9-169.2,84.6c-46.9,46.7-74.5,103.4-84.5,168.9
			c-3,0-5.9,0-9.5,0c8.6-60.8,32.7-114.2,72.8-160.2C259.7,136.3,323.5,102.7,399.6,91.2z"/>
		<radialGradient id="SVGID_11_" cx="612.5653" cy="567.5995" r="131.3266" gradientUnits="userSpaceOnUse">
			<stop  offset="0" style="stop-color:#FFFBCC"/>
			<stop  offset="0.1146" style="stop-color:#FBF2BB"/>
			<stop  offset="0.3413" style="stop-color:#F0D98E"/>
			<stop  offset="0.3708" style="stop-color:#EED688"/>
			<stop  offset="0.6854" style="stop-color:#EBBB10"/>
			<stop  offset="1" style="stop-color:#C3922E"/>
		</radialGradient>
		<path class="st10" d="M481.3,699c0-3.2,0-6.1,0-9.4c65.7-9.5,122.2-37.8,169.1-84.5c46.9-46.7,74.6-103.3,84.5-169
			c3.1,0,5.9,0,8.8,0C731.4,553.7,632,679.3,481.3,699z"/>
		<radialGradient id="SVGID_12_" cx="612.6839" cy="222.7453" r="131.3787" gradientUnits="userSpaceOnUse">
			<stop  offset="0" style="stop-color:#FFFBCC"/>
			<stop  offset="0.1146" style="stop-color:#FBF2BB"/>
			<stop  offset="0.3413" style="stop-color:#F0D98E"/>
			<stop  offset="0.3708" style="stop-color:#EED688"/>
			<stop  offset="0.6854" style="stop-color:#EBBB10"/>
			<stop  offset="1" style="stop-color:#C3922E"/>
		</radialGradient>
		<path class="st11" d="M743.9,354.3c-2.9,0-5.8,0-9,0c-9.8-65.5-37.5-122.2-84.4-168.9c-46.8-46.6-103.2-75-169.1-84.5
			c0-3.1,0-6.1,0-9.7c66.1,9.8,123.4,37,171.7,83.4C710.1,229.3,738.2,300.2,743.9,354.3z"/>
	</g>
</g>
<g>
	<g>
		<radialGradient id="SVGID_13_" cx="436.8368" cy="409.2221" r="47.0893" gradientUnits="userSpaceOnUse">
			<stop  offset="0" style="stop-color:#FFFBCC"/>
			<stop  offset="0.1146" style="stop-color:#FBF2BB"/>
			<stop  offset="0.3413" style="stop-color:#F0D98E"/>
			<stop  offset="0.3708" style="stop-color:#EED688"/>
			<stop  offset="0.6854" style="stop-color:#EBBB10"/>
			<stop  offset="1" style="stop-color:#C3922E"/>
		</radialGradient>
		<path class="st12" d="M386.7,365.4c33.6,27.6,66.8,54.9,100.3,82.5c-1.4,1.7-2.7,3.3-4.2,5.1c-29.8-24.4-59.4-48.7-89.5-73.4
			c0,24.7,0,48.9,0,73.2c-2.4,0-4.4,0-6.6,0C386.7,423.9,386.7,395,386.7,365.4z"/>
		<radialGradient id="SVGID_14_" cx="443.0293" cy="381.3275" r="47.2812" gradientUnits="userSpaceOnUse">
			<stop  offset="0" style="stop-color:#FFFBCC"/>
			<stop  offset="0.1146" style="stop-color:#FBF2BB"/>
			<stop  offset="0.3413" style="stop-color:#F0D98E"/>
			<stop  offset="0.3708" style="stop-color:#EED688"/>
			<stop  offset="0.6854" style="stop-color:#EBBB10"/>
			<stop  offset="1" style="stop-color:#C3922E"/>
		</radialGradient>
		<path class="st13" d="M392.8,342.8c1.6-1.8,2.9-3.4,4.3-5.1c29.7,24.4,59.3,48.7,89.6,73.6c0-2,0-3.2,0-4.5c0-21.9,0-43.8,0-65.6
			c0-3.2,2.9-5,5.7-3.4c0.6,0.4,0.8,1.9,0.8,2.9c0.1,12.7,0,25.5,0,38.2c0,14.4,0,28.7,0,43.1c0,0.9,0,1.8,0,3.4
			C459.5,397.7,426.3,370.4,392.8,342.8z"/>
	</g>
	<g>
		<radialGradient id="SVGID_15_" cx="286.774" cy="409.3469" r="53.5657" gradientUnits="userSpaceOnUse">
			<stop  offset="0" style="stop-color:#FFFBCC"/>
			<stop  offset="0.1146" style="stop-color:#FBF2BB"/>
			<stop  offset="0.3413" style="stop-color:#F0D98E"/>
			<stop  offset="0.3708" style="stop-color:#EED688"/>
			<stop  offset="0.6854" style="stop-color:#EBBB10"/>
			<stop  offset="1" style="stop-color:#C3922E"/>
		</radialGradient>
		<path class="st14" d="M225,365.6c20.8,17,41.1,33.8,61.7,50.7c20.5-16.8,40.8-33.5,61.8-50.7c0,2.1,0,3.5,0,5
			c0,25.8,0,51.6,0,77.4c0,5.9,0,5.9-6.5,4.9c0-24.1,0-48.2,0-73.3c-18.8,15.5-37,30.4-55.4,45.6c-18.1-14.9-36.3-29.9-55.1-45.4
			c0,24.9,0,49,0,73.4c-2.4,0-4.4,0-6.5,0C225,423.9,225,395,225,365.6z"/>
		<radialGradient id="SVGID_16_" cx="286.6892" cy="363.2316" r="43.2271" gradientUnits="userSpaceOnUse">
			<stop  offset="0" style="stop-color:#FFFBCC"/>
			<stop  offset="0.1146" style="stop-color:#FBF2BB"/>
			<stop  offset="0.3413" style="stop-color:#F0D98E"/>
			<stop  offset="0.3708" style="stop-color:#EED688"/>
			<stop  offset="0.6854" style="stop-color:#EBBB10"/>
			<stop  offset="1" style="stop-color:#C3922E"/>
		</radialGradient>
		<path class="st15" d="M286.6,388.7c-18.6-15.4-37-30.7-55.5-46.1c1.4-1.7,2.7-3.2,4.1-4.9c17.2,14,34.1,27.9,51.5,42
			c17-13.9,34.1-27.9,51.3-42c1.4,1.7,2.7,3.2,4.2,4.9C323.7,358,305.3,373.3,286.6,388.7z"/>
	</g>
	<g>
		<radialGradient id="SVGID_17_" cx="594.0771" cy="409.3469" r="53.5657" gradientUnits="userSpaceOnUse">
			<stop  offset="0" style="stop-color:#FFFBCC"/>
			<stop  offset="0.1146" style="stop-color:#FBF2BB"/>
			<stop  offset="0.3413" style="stop-color:#F0D98E"/>
			<stop  offset="0.3708" style="stop-color:#EED688"/>
			<stop  offset="0.6854" style="stop-color:#EBBB10"/>
			<stop  offset="1" style="stop-color:#C3922E"/>
		</radialGradient>
		<path class="st16" d="M532.3,365.6c20.8,17,41.1,33.8,61.7,50.7c20.5-16.8,40.8-33.5,61.8-50.7c0,2.1,0,3.5,0,5
			c0,25.8,0,51.6,0,77.4c0,5.9,0,5.9-6.5,4.9c0-24.1,0-48.2,0-73.3c-18.8,15.5-37,30.4-55.4,45.6c-18.1-14.9-36.3-29.9-55.1-45.4
			c0,24.9,0,49,0,73.4c-2.4,0-4.4,0-6.5,0C532.3,423.9,532.3,395,532.3,365.6z"/>
		<radialGradient id="SVGID_18_" cx="593.9923" cy="363.2316" r="43.2271" gradientUnits="userSpaceOnUse">
			<stop  offset="0" style="stop-color:#FFFBCC"/>
			<stop  offset="0.1146" style="stop-color:#FBF2BB"/>
			<stop  offset="0.3413" style="stop-color:#F0D98E"/>
			<stop  offset="0.3708" style="stop-color:#EED688"/>
			<stop  offset="0.6854" style="stop-color:#EBBB10"/>
			<stop  offset="1" style="stop-color:#C3922E"/>
		</radialGradient>
		<path class="st17" d="M593.9,388.7c-18.6-15.4-37-30.7-55.5-46.1c1.4-1.7,2.7-3.2,4.1-4.9c17.2,14,34.1,27.9,51.5,42
			c17-13.9,34.1-27.9,51.3-42c1.4,1.7,2.7,3.2,4.2,4.9C631,358,612.6,373.3,593.9,388.7z"/>
	</g>
</g>
</svg>
